<?xml version="1.0" standalone="no"?><!DOCTYPE svg PUBLIC "-//W3C//DTD SVG 1.1//EN" "http://www.w3.org/Graphics/SVG/1.1/DTD/svg11.dtd"><svg t="1649923648917" class="icon" viewBox="0 0 1024 1024" version="1.1" xmlns="http://www.w3.org/2000/svg" p-id="5639" data-darkreader-inline-fill="" xmlns:xlink="http://www.w3.org/1999/xlink" width="200" height="200"><defs><style type="text/css"></style></defs><path d="M821.333333 138.666667c64.8 0 117.333333 52.533333 117.333334 117.333333v149.333333a32 32 0 0 1-32 32 74.666667 74.666667 0 0 0 0 149.333334 32 32 0 0 1 32 32v149.333333c0 64.8-52.533333 117.333333-117.333334 117.333333H202.666667c-64.8 0-117.333333-52.533333-117.333334-117.333333V618.666667a32 32 0 0 1 32-32 74.666667 74.666667 0 0 0 0-149.333334 32 32 0 0 1-32-32V256c0-64.8 52.533333-117.333333 117.333334-117.333333h618.666666zM640 565.333333H384a32 32 0 0 0 0 64h256a32 32 0 0 0 0-64z m0-170.666666H384a32 32 0 0 0 0 64h256a32 32 0 0 0 0-64z" p-id="5640"></path></svg>